<?xml version="1.0" encoding="UTF-8" standalone="no"?>
<!-- Created with Inkscape (http://www.inkscape.org/) -->

<svg
   xmlns:dc="http://purl.org/dc/elements/1.1/"
   xmlns:cc="http://creativecommons.org/ns#"
   xmlns:rdf="http://www.w3.org/1999/02/22-rdf-syntax-ns#"
   xmlns:svg="http://www.w3.org/2000/svg"
   xmlns="http://www.w3.org/2000/svg"
   xmlns:sodipodi="http://sodipodi.sourceforge.net/DTD/sodipodi-0.dtd"
   xmlns:inkscape="http://www.inkscape.org/namespaces/inkscape"
   width="160mm"
   height="160mm"
   viewBox="0 0 160 160"
   version="1.1"
   id="svg8"
   inkscape:version="0.92.5 (2060ec1f9f, 2020-04-08)"
   sodipodi:docname="SunroomIcon.svg">
  <defs
     id="defs2" />
  <sodipodi:namedview
     id="base"
     pagecolor="#ffffff"
     bordercolor="#666666"
     borderopacity="1.0"
     inkscape:pageopacity="0.0"
     inkscape:pageshadow="2"
     inkscape:zoom="0.98994949"
     inkscape:cx="199.18476"
     inkscape:cy="218.87649"
     inkscape:document-units="mm"
     inkscape:current-layer="layer1"
     showgrid="true"
     inkscape:snap-grids="false"
     inkscape:window-width="1920"
     inkscape:window-height="1015"
     inkscape:window-x="0"
     inkscape:window-y="36"
     inkscape:window-maximized="1"
     inkscape:pagecheckerboard="true">
    <inkscape:grid
       type="xygrid"
       id="grid815" />
  </sodipodi:namedview>
  <metadata
     id="metadata5">
    <rdf:RDF>
      <cc:Work
         rdf:about="">
        <dc:format>image/svg+xml</dc:format>
        <dc:type
           rdf:resource="http://purl.org/dc/dcmitype/StillImage" />
        <dc:title></dc:title>
      </cc:Work>
    </rdf:RDF>
  </metadata>
  <g
     inkscape:label="Layer 1"
     inkscape:groupmode="layer"
     id="layer1"
     transform="translate(0,-137)">
    <path
       style="fill:none;stroke:#f7d708;stroke-width:1.52900004;stroke-linecap:butt;stroke-linejoin:miter;stroke-miterlimit:4;stroke-dasharray:none;stroke-opacity:1"
       d="m 27.067502,275.43316 c 0.04402,-0.41959 54.712287,-20.55462 103.039208,2.05506"
       id="path817"
       inkscape:connector-curvature="0"
       sodipodi:nodetypes="cc" />
    <path
       style="fill:none;stroke:#f7d708;stroke-width:2.52559543;stroke-linecap:butt;stroke-linejoin:miter;stroke-miterlimit:4;stroke-dasharray:none;stroke-opacity:1"
       d="M 20.065247,209.50149 76.391175,178.47064"
       id="path821"
       inkscape:connector-curvature="0" />
    <path
       style="fill:none;stroke:#f7d708;stroke-width:1.28573465;stroke-linecap:butt;stroke-linejoin:miter;stroke-miterlimit:4;stroke-dasharray:none;stroke-opacity:1"
       d="m 32.692329,272.82674 c -0.308361,-0.62264 0,-70.35688 0,-70.35688"
       id="path823"
       inkscape:connector-curvature="0" />
    <path
       style="fill:none;stroke:#f7d708;stroke-width:2.54208589;stroke-linecap:butt;stroke-linejoin:miter;stroke-miterlimit:4;stroke-dasharray:none;stroke-opacity:1"
       d="M 132.17196,209.49619 75.088632,178.47593"
       id="path821-4"
       inkscape:connector-curvature="0" />
    <path
       style="fill:none;stroke:#f7d708;stroke-width:1.28573465;stroke-linecap:butt;stroke-linejoin:miter;stroke-miterlimit:4;stroke-dasharray:none;stroke-opacity:1"
       d="m 119.54731,272.82674 c 0.30835,-0.62264 0,-70.35688 0,-70.35688"
       id="path823-6"
       inkscape:connector-curvature="0" />
    <ellipse
       style="fill:#f7d708;fill-opacity:1;stroke:#f7d708;stroke-width:0.6079548;stroke-miterlimit:4;stroke-dasharray:none;stroke-opacity:1"
       id="path843"
       cx="108.19221"
       cy="173.19333"
       rx="19.883415"
       ry="18.519567" />
    <path
       style="fill:#f7d708;fill-opacity:1;stroke:#f7d708;stroke-width:0.21750891px;stroke-linecap:butt;stroke-linejoin:miter;stroke-opacity:1"
       d="m 107.68951,153.54698 1.07799,-2.19437 1.07799,2.19437 c 0,0 -1.07799,-1.09719 -2.15598,0 z"
       id="path845"
       inkscape:connector-curvature="0" />
    <path
       style="fill:#f7d708;fill-opacity:1;stroke:#f7d708;stroke-width:0.21750891px;stroke-linecap:butt;stroke-linejoin:miter;stroke-opacity:1"
       d="m 87.207708,172.90994 -2.155976,-1.09718 2.155976,-1.09719 c 0,0 -1.077992,1.09719 0,2.19437 z"
       id="path845-5"
       inkscape:connector-curvature="0" />
    <path
       style="fill:#f7d708;fill-opacity:1;stroke:#f7d708;stroke-width:0.21750891px;stroke-linecap:butt;stroke-linejoin:miter;stroke-opacity:1"
       d="m 108.76749,192.18905 -1.07799,2.19436 -1.07798,-2.19436 c 0,0 1.07798,1.09718 2.15597,0 z"
       id="path845-2"
       inkscape:connector-curvature="0" />
    <path
       style="fill:#f7d708;fill-opacity:1;stroke:#f7d708;stroke-width:0.21750891px;stroke-linecap:butt;stroke-linejoin:miter;stroke-opacity:1"
       d="m 129.40329,173.38016 2.15598,1.09718 -2.15598,1.09719 c 0,0 1.07799,-1.09719 0,-2.19437 z"
       id="path845-9"
       inkscape:connector-curvature="0" />
    <path
       style="fill:#f7d708;fill-opacity:1;stroke:#f7d708;stroke-width:0.21750891px;stroke-linecap:butt;stroke-linejoin:miter;stroke-opacity:1"
       d="m 91.885934,159.07644 -0.76225,-2.32748 2.286758,0.77582 c 0,0 -1.524508,0 -1.524508,1.55166 z"
       id="path845-0"
       inkscape:connector-curvature="0" />
    <path
       style="fill:#f7d708;fill-opacity:1;stroke:#f7d708;stroke-width:0.21750891px;stroke-linecap:butt;stroke-linejoin:miter;stroke-opacity:1"
       d="m 122.16815,157.61718 2.28676,-0.77582 -0.76224,2.32748 c 0,0 0,-1.55166 -1.52452,-1.55166 z"
       id="path845-0-3"
       inkscape:connector-curvature="0" />
    <path
       style="fill:#f7d708;fill-opacity:1;stroke:#f7d708;stroke-width:0.21750891px;stroke-linecap:butt;stroke-linejoin:miter;stroke-opacity:1"
       d="m 121.99868,187.44171 0.76225,2.32748 -2.28676,-0.77582 c 0,0 1.52451,0 1.52451,-1.55166 z"
       id="path845-0-8"
       inkscape:connector-curvature="0" />
    <path
       style="fill:#f7d708;fill-opacity:1;stroke:#f7d708;stroke-width:0.44920853;stroke-miterlimit:4;stroke-dasharray:none;stroke-opacity:1"
       d="m 33.359879,271.41784 c -0.129788,-1.1 -0.128883,-39.26706 0.0012,-55.22409 l 0.102309,-12.53925 21.136245,-11.64214 21.136244,-11.64214 21.547503,11.70981 21.54751,11.70983 0.10287,27.62188 c 0.0565,15.19203 0.0568,30.54867 6.4e-4,34.12586 l -0.10224,6.504 -0.70668,-0.22216 c -20.95426,-6.58741 -44.891815,-7.7182 -69.00502,-3.25974 -4.312362,0.79734 -11.229514,2.42098 -15.338479,3.60033 -0.29215,0.0838 -0.333209,0.0117 -0.422156,-0.74219 z"
       id="path901"
       inkscape:connector-curvature="0" />
    <ellipse
       style="fill:none;fill-opacity:1;stroke:#0828f7;stroke-width:0.76499999;stroke-miterlimit:4;stroke-dasharray:none;stroke-opacity:1"
       id="path903"
       cx="80.112076"
       cy="216.88794"
       rx="80.047218"
       ry="78.176331" />
    <path
       style="fill:#0828f7;fill-opacity:1;stroke:#0828f7;stroke-width:0.77276665;stroke-miterlimit:4;stroke-dasharray:none;stroke-opacity:1"
       d="m 129.16177,275.78733 c -0.95549,-0.4136 -3.33082,-1.33012 -5.27852,-2.03671 l -3.54126,-1.28472 -6e-5,-33.88185 -6e-5,-33.88184 1.1359,0.57459 c 0.62474,0.31603 3.08448,1.64146 5.4661,2.9454 2.38161,1.30394 4.42622,2.36981 4.54358,2.3686 0.2079,-0.002 1.48645,-2.16264 1.35069,-2.2824 -0.0375,-0.0331 -5.66085,-3.09583 -12.49627,-6.80606 -6.83542,-3.71023 -12.4636,-6.77625 -12.50708,-6.81338 -0.0435,-0.0371 0.18804,-0.61723 0.51448,-1.28913 0.57786,-1.18941 0.63283,-1.22608 2.08356,-1.38983 3.52969,-0.3984 7.19602,-1.78477 9.99851,-3.78077 1.02589,-0.73068 1.27341,-0.82068 1.20114,-0.43678 -0.0501,0.26595 -0.36093,0.60227 -0.69081,0.74738 -0.32989,0.1451 -0.5998,0.34427 -0.5998,0.44259 0,0.20523 2.44475,1.0806 2.59586,0.92948 0.0549,-0.0549 -0.12519,-0.69189 -0.40018,-1.41558 l -0.49996,-1.31581 1.44898,-1.59041 c 1.77289,-1.94593 3.30498,-4.49133 4.09426,-6.80217 0.80784,-2.36518 1.00664,-7.13662 0.40433,-9.70491 -2.57729,-10.98993 -15.28029,-17.53786 -26.57247,-13.69714 -6.64683,2.26073 -11.382576,7.26547 -13.033176,13.77345 -0.669949,2.64148 -0.416515,7.26694 0.539525,9.847 0.940094,2.53703 2.182672,4.62014 3.895241,6.53016 0.757864,0.84523 1.278112,1.53501 1.156107,1.53283 -0.12201,-0.002 -4.271229,-2.20939 -9.220493,-4.90491 l -8.998659,-4.90094 -28.151804,15.49954 c -15.483493,8.52474 -28.18251,15.5234 -28.220039,15.55256 -0.140075,0.10885 1.145875,2.27311 1.351883,2.27523 0.118013,0.001 2.607289,-1.32078 5.531725,-2.93776 2.924437,-1.61698 5.383646,-2.93997 5.464908,-2.93997 0.08126,0 0.14533,15.30452 0.142372,34.01005 l -0.0054,34.01005 -2.64927,0.83216 -2.649268,0.83217 -3.339447,-3.37123 C 19.563329,267.32782 18.51594,266.14266 16.061279,262.91809 11.878238,257.42301 7.5256419,249.45205 5.1480834,242.93262 3.6631817,238.86091 2.1045553,232.68152 1.3657372,227.93697 0.56009423,222.76329 0.48794783,211.67508 1.2276714,206.7176 c 2.2484492,-15.06868 8.119866,-28.15475 17.6878536,-39.42226 3.029558,-3.56769 8.829295,-9.03625 12.499539,-11.78579 11.21818,-8.40405 22.969561,-13.28514 37.343792,-15.51125 3.328601,-0.51549 4.931312,-0.60017 11.358953,-0.60017 6.427642,0 8.030353,0.0847 11.358954,0.60017 9.373297,1.45163 16.757717,3.74008 24.455157,7.57874 8.15639,4.06753 13.82736,8.08412 20.28018,14.36389 12.6157,12.2774 20.18224,27.1425 22.79192,44.77667 0.6699,4.52664 0.6699,15.78583 0,20.31248 -2.00876,13.57364 -6.81738,25.15567 -14.98024,36.08138 -2.286,3.05975 -11.31837,12.495 -12.59022,13.15182 -0.41585,0.21475 -0.9203,0.10907 -2.27179,-0.47595 z m 2.50774,-101.22504 c 0.15815,-0.2559 -2.1082,-1.4302 -2.33074,-1.20767 -0.08,0.08 -0.003,0.37313 0.17029,0.65127 0.24292,0.38899 0.24292,0.62246 0,1.01145 -0.17371,0.27815 -0.24788,0.57368 -0.16484,0.65672 0.16803,0.16802 2.10742,-0.75924 2.32529,-1.11177 z m -44.479719,-2.06804 c -0.180168,-0.21709 -0.230529,-0.70018 -0.123695,-1.18658 l 0.180192,-0.82042 -1.22563,0.59546 c -0.674097,0.3275 -1.225632,0.66807 -1.225632,0.75681 0,0.25165 2.245765,1.28787 2.485221,1.14671 0.117388,-0.0692 0.07668,-0.29059 -0.09046,-0.49198 z m 5.92001,-14.70424 0.638754,-0.34337 -0.746778,-0.28527 c -0.410729,-0.1569 -1.059561,-0.36378 -1.44185,-0.45973 -0.641895,-0.1611 -0.68172,-0.12127 -0.520615,0.52062 0.09595,0.38229 0.302823,1.03112 0.459724,1.44185 l 0.285274,0.74678 0.343368,-0.63876 c 0.188852,-0.35131 0.630806,-0.79327 0.982123,-0.98212 z m 31.235459,0.0662 c 0.17941,-0.56109 0.27447,-1.07189 0.21125,-1.13511 -0.21625,-0.21625 -2.61174,0.73517 -2.46182,0.97776 0.0823,0.13314 0.3255,0.24208 0.54048,0.24208 0.21497,0 0.52934,0.30394 0.6986,0.67542 0.35988,0.78985 0.56524,0.63552 1.01149,-0.76015 z m -14.4269,-4.53632 c 0,-0.1161 -0.25558,-0.71207 -0.56795,-1.32437 l -0.56795,-1.11327 -0.62268,1.19074 c -0.34248,0.6549 -0.62812,1.25087 -0.63477,1.32436 -0.007,0.0735 0.52914,0.13364 1.19064,0.13364 0.66149,0 1.20271,-0.095 1.20271,-0.2111 z"
       id="path907"
       inkscape:connector-curvature="0" />
    <path
       style="fill:#0828f7;fill-opacity:1;stroke:#0828f7;stroke-width:0.09659583;stroke-miterlimit:4;stroke-dasharray:none;stroke-opacity:1"
       d="m 103.23866,192.3124 c -2.30181,-1.25092 -4.178759,-2.28074 -4.170999,-2.28849 0.008,-0.008 0.20725,0.0715 0.44332,0.17617 1.856449,0.82292 3.932749,1.40083 5.924959,1.64912 0.95687,0.11925 1.29348,0.14311 2.32878,0.16505 l 1.00912,0.0214 -0.19061,0.15983 c -0.31451,0.26373 -0.50434,0.33888 -0.85879,0.34001 -0.2707,8e-4 -0.32349,-0.01 -0.52943,-0.10722 -0.12582,-0.0595 -0.28721,-0.15447 -0.35865,-0.21105 -0.13232,-0.1048 -0.21857,-0.11015 -0.29481,-0.0183 -0.0275,0.0331 0.0868,0.29553 0.46813,1.07564 l 0.50446,1.03187 -0.0452,0.14018 -0.0452,0.14019 z"
       id="path911"
       inkscape:connector-curvature="0" />
    <path
       style="fill:#0828f7;fill-opacity:1;stroke:#0828f7;stroke-width:0.09659583;stroke-miterlimit:4;stroke-dasharray:none;stroke-opacity:1"
       d="m 96.048102,188.40629 c -0.542055,-0.29539 -1.178383,-0.64231 -1.41406,-0.77091 l -0.428506,-0.23383 0.06651,-0.0717 c 0.03658,-0.0394 0.07686,-0.14204 0.08951,-0.22803 l 0.02299,-0.15636 0.38911,0.32376 c 0.655367,0.54531 1.308729,1.01617 2.26505,1.63237 0.03397,0.0219 0.04673,0.0402 0.02835,0.0408 -0.01839,5.3e-4 -0.476909,-0.2407 -1.018966,-0.5361 z"
       id="path913"
       inkscape:connector-curvature="0" />
    <path
       style="fill:#0828f7;fill-opacity:1;stroke:#0828f7;stroke-width:0.09127166;stroke-miterlimit:4;stroke-dasharray:none;stroke-opacity:1"
       d=""
       id="path915"
       inkscape:connector-curvature="0"
       transform="matrix(0.26458333,0,0,0.26458333,0,137)" />
    <path
       style="fill:#0828f7;fill-opacity:1;stroke:#0828f7;stroke-width:0.00853795;stroke-miterlimit:4;stroke-dasharray:none;stroke-opacity:1"
       d="m 98.063976,189.51358 c -0.949378,-0.51617 -0.970299,-0.52773 -0.963338,-0.53231 0.0092,-0.006 0.02178,-0.0231 0.02178,-0.0296 0,-0.0151 0.0026,-0.0143 0.05409,0.0172 0.292658,0.179 0.682058,0.40026 1.026689,0.58337 0.204202,0.1085 0.535067,0.27578 0.733804,0.371 0.052,0.0249 0.0991,0.0476 0.10468,0.0504 l 0.0102,0.005 -0.01,0.005 -0.01,0.005 0.002,0.0263 c 0.001,0.0145 0.002,0.0262 0.001,0.0261 -5.3e-4,-1.1e-4 -0.437667,-0.23763 -0.971417,-0.52783 z"
       id="path917"
       inkscape:connector-curvature="0" />
    <path
       style="fill:#0828f7;fill-opacity:1;stroke:#0828f7;stroke-width:1.37785709;stroke-miterlimit:4;stroke-dasharray:none;stroke-opacity:1"
       d="m 74.822489,294.42441 c -13.73691,-0.87318 -27.379639,-5.41818 -38.948677,-12.97552 -2.081681,-1.35984 -5.606314,-3.93786 -6.983415,-5.10788 l -0.652312,-0.55422 2.353204,-0.77449 c 8.518655,-2.80365 19.417001,-5.12262 29.521433,-6.2816 25.455369,-2.91976 48.400208,0.0439 68.062628,8.79139 l 1.11478,0.49594 -1.30377,0.94866 c -15.42891,11.22651 -34.140245,16.66695 -53.163871,15.45772 z"
       id="path939"
       inkscape:connector-curvature="0" />
  </g>
</svg>
